HIERARCHY
ROOT Pelvis
{
	OFFSET 0.000000 0.000000 0.000000
	CHANNELS 6 Xposition Yposition Zposition Zrotation Yrotation Xrotation 
	JOINT Left_hip
	{
		OFFSET 0.067986 -0.089946 -0.007639
		CHANNELS 3 Zrotation Yrotation Xrotation
		JOINT Left_knee
		{
			OFFSET 0.036308 -0.388288 -0.004016
			CHANNELS 3 Zrotation Yrotation Xrotation
			JOINT Left_ankle
			{
				OFFSET -0.012264 -0.413250 -0.042878
				CHANNELS 3 Zrotation Yrotation Xrotation
				JOINT Left_foot
				{
					OFFSET 0.024043 -0.058563 0.118570
					CHANNELS 3 Zrotation Yrotation Xrotation
					End Site
					{
						OFFSET 0.000000 0.000000 0.000000
					}
				}
			}
		}
	}
	JOINT Right_hip
	{
		OFFSET -0.065648 -0.089374 -0.003858
		CHANNELS 3 Zrotation Yrotation Xrotation
		JOINT Right_knee
		{
			OFFSET -0.042132 -0.395021 -0.006361
			CHANNELS 3 Zrotation Yrotation Xrotation
			JOINT Right_ankle
			{
				OFFSET 0.014805 -0.413264 -0.041054
				CHANNELS 3 Zrotation Yrotation Xrotation
				JOINT Right_foot
				{
					OFFSET -0.021758 -0.049013 0.121832
					CHANNELS 3 Zrotation Yrotation Xrotation
					End Site
					{
						OFFSET 0.000000 0.000000 0.000000
					}
				}
			}
		}
	}
	JOINT Spine1
	{
		OFFSET -0.002755 0.104406 -0.022277
		CHANNELS 3 Zrotation Yrotation Xrotation
		JOINT Spine2
		{
			OFFSET 0.004136 0.129393 -0.002186
			CHANNELS 3 Zrotation Yrotation Xrotation
			JOINT Spine3
			{
				OFFSET 0.001906 0.049304 0.025578
				CHANNELS 3 Zrotation Yrotation Xrotation
				JOINT Neck
				{
					OFFSET -0.004620 0.210958 -0.044063
					CHANNELS 3 Zrotation Yrotation Xrotation
					JOINT Head
					{
						OFFSET 0.003833 0.067393 0.052435
						CHANNELS 3 Zrotation Yrotation Xrotation
						End Site
						{
							OFFSET 0.000000 0.000000 0.000000
						}
					}
				}
				JOINT Left_collar
				{
					OFFSET 0.070771 0.116689 -0.037192
					CHANNELS 3 Zrotation Yrotation Xrotation
					JOINT Left_shoulder
					{
						OFFSET 0.080652 0.031596 -0.005617
						CHANNELS 3 Zrotation Yrotation Xrotation
						JOINT Left_elbow
						{
							OFFSET 0.262654 -0.015020 -0.027939
							CHANNELS 3 Zrotation Yrotation Xrotation
							JOINT Left_wrist
							{
								OFFSET 0.250438 0.010062 -0.000990
								CHANNELS 3 Zrotation Yrotation Xrotation
								JOINT Left_palm
								{
									OFFSET 0.081198 -0.010037 -0.013706
									CHANNELS 3 Zrotation Yrotation Xrotation
									End Site
									{
										OFFSET 0.000000 0.000000 0.000000
									}
								}
							}
						}
					}
				}
				JOINT Right_collar
				{
					OFFSET -0.072972 0.115556 -0.040762
					CHANNELS 3 Zrotation Yrotation Xrotation
					JOINT Right_shoulder
					{
						OFFSET -0.082917 0.031841 -0.006673
						CHANNELS 3 Zrotation Yrotation Xrotation
						JOINT Right_elbow
						{
							OFFSET -0.252882 -0.013790 -0.020410
							CHANNELS 3 Zrotation Yrotation Xrotation
							JOINT Right_wrist
							{
								OFFSET -0.255570 0.009163 -0.005138
								CHANNELS 3 Zrotation Yrotation Xrotation
								JOINT Right_palm
								{
									OFFSET -0.080804 -0.007282 -0.010415
									CHANNELS 3 Zrotation Yrotation Xrotation
									End Site
									{
										OFFSET 0.000000 0.000000 0.000000
									}
								}
							}
						}
					}
				}
			}
		}
	}
}
MOTION
Frames: 5
Frame Time: 0.100000
0.000000 0.000000 0.000000 174.842549 23.767345 -18.420422 7.731910 5.015269 9.711441 -5.087193 -18.050524 -3.206671 -5.905119 10.992635 -8.324637 2.845882 0.768691 1.382727 -5.745722 -6.014259 9.025904 5.558517 10.752237 0.430332 12.721484 -11.078470 -10.038485 -8.028886 8.026027 2.704384 0.946559 1.918165 9.206072 0.608619 -2.921729 0.097107 1.091212 0.023216 2.096752 1.369520 6.266172 2.405567 0.366179 1.271712 -1.576812 -7.072667 2.106735 -8.363810 -2.500382 1.246325 -13.132677 1.602638 -6.075348 -7.751934 -0.948111 -7.906999 20.724613 -7.294699 -1.992081 -13.293193 7.933177 -1.690127 -6.432760 5.052109 -2.808930 -9.660294 -6.222600 8.567408 -9.914185 2.026226 3.109537 13.714251 7.919072 4.412858 -3.474861 
-0.000056 0.000071 -0.000163 174.836439 23.768727 -18.473138 7.720102 5.009951 9.710344 -5.108482 -18.073288 -3.116189 -5.891317 10.972752 -8.326046 2.825016 0.826969 1.368719 -5.753121 -6.008018 9.069919 5.555357 10.759604 0.437836 12.703225 -11.093831 -10.034982 -7.989747 8.023475 2.683848 0.936105 1.929498 9.325866 0.607410 -2.904749 0.129714 1.102268 0.031673 2.119410 1.389654 6.301225 2.391170 0.344440 1.276057 -1.540280 -7.114648 2.131489 -8.375619 -2.545269 1.252585 -13.113462 1.622631 -6.217024 -7.655496 -0.985514 -7.882675 20.795114 -7.286583 -1.999062 -13.308416 7.994871 -1.655848 -6.459794 5.121697 -2.771436 -9.652452 -6.227706 8.548543 -9.933298 2.039289 3.077068 13.815587 7.930377 4.425086 -3.500492 
-0.000470 0.000149 -0.000266 174.810524 23.778819 -18.532524 7.674363 4.977375 9.666128 -5.126759 -18.094086 -2.913099 -5.818550 10.999425 -8.453648 2.800777 0.890956 1.404954 -5.768240 -5.997333 9.110848 5.555343 10.769680 0.474163 12.740740 -11.108606 -10.047181 -8.011639 8.040187 2.658098 0.898068 1.977005 9.439294 0.633179 -2.888019 0.172215 1.125490 0.039793 2.133125 1.487070 6.316850 2.294835 0.374373 1.235144 -1.561731 -7.215009 2.126434 -8.353188 -2.551612 1.295265 -13.035227 1.618454 -6.370086 -7.501879 -0.971636 -7.864878 20.942257 -7.353362 -2.047541 -13.396963 8.123354 -1.628162 -6.454847 5.170981 -2.818484 -9.619755 -6.272891 8.606167 -10.031864 1.984804 3.061941 13.825388 8.016671 4.463097 -3.584076 
-0.001588 0.000237 -0.000559 174.768771 23.746723 -18.590932 7.609010 4.912877 9.666865 -5.140841 -18.072681 -2.776620 -5.652180 11.018320 -8.611825 2.722954 1.033362 1.446194 -5.791211 -5.970511 9.144437 5.532429 10.737367 0.517910 12.716199 -11.086528 -10.036467 -7.937005 8.024936 2.665427 0.858271 2.010743 9.477189 0.647025 -2.837462 0.304822 1.134221 0.057815 2.151612 1.668300 6.225033 2.348302 0.446875 1.163018 -1.512801 -7.447545 2.158752 -8.301701 -2.686400 1.230017 -12.929692 1.997054 -7.096918 -7.456566 -0.965195 -7.821283 20.878587 -7.387443 -2.078644 -13.371380 8.331942 -1.576711 -6.379733 5.298624 -2.832194 -9.529581 -6.425331 8.856547 -10.106965 1.972695 3.039300 13.804826 8.071407 4.497812 -3.621142 
-0.003241 0.000419 -0.001140 174.705358 23.711391 -18.688301 7.526660 4.854426 9.698172 -5.177743 -18.034076 -2.651902 -5.447457 10.986036 -8.742958 2.608015 1.247638 1.458371 -5.838378 -5.939895 9.197873 5.503015 10.650460 0.571487 12.661586 -11.004769 -9.995597 -7.759321 7.971117 2.708232 0.770543 2.046888 9.546506 0.660961 -2.780017 0.475892 1.122797 0.067836 2.147112 1.843466 6.094111 2.423579 0.479945 0.962195 -1.398714 -7.775077 2.204209 -8.186857 -2.835448 1.091702 -12.640791 2.644059 -8.577572 -7.052727 -0.809588 -7.878840 20.959982 -7.522557 -2.133615 -13.413158 8.716900 -1.499876 -6.287576 5.584849 -2.825835 -9.321766 -6.725520 9.558754 -10.166067 1.841787 3.035570 13.680396 8.226348 4.571817 -3.708670 
